<svg xmlns="http://www.w3.org/2000/svg" width="90" height="58.31" viewBox="0 0 90 58.31"><defs><style>.cls-1{fill-rule:evenodd}</style></defs><path fill="#fff" class="cls-1" d="M88.092 38.83c-5.749 12.33-27.543 19.49-27.543 19.49a78.73 78.73 0 0 1-16.122-7.79 90.456 90.456 0 0 1-8.838 3.59S9.255 45.47 2.308 30.57C-2.92 19.36 1.041 6.45 11.156 1.73c8.348-3.89 18.278-.99 24.433 6.45C41.743.74 51.673-2.16 60.022 1.73a18.986 18.986 0 0 1 9.53 10.18 18.815 18.815 0 0 0-9 6.06c-5.093-6.16-13.311-8.56-20.22-5.34-6.2 2.89-9.608 9.51-9.193 16.52a16.458 16.458 0 0 1 9.193-14.19c6.909-3.22 15.127-.81 20.22 5.34 5.093-6.15 13.312-8.56 20.22-5.34 8.369 3.91 11.647 14.59 7.32 23.87z"/></svg>