<svg xmlns="http://www.w3.org/2000/svg" xmlns:xlink="http://www.w3.org/1999/xlink" width="65" height="92" viewBox="0 0 65 92"><defs><path id="a" d="M576.06 1895v-11.13h-5.56V1895h-11.13v-77.88h11.13V1806h5.56v11.12h11.13V1895zm-5.56-66.75h-5.56v5.56h5.56zm0 11.12h-5.56v5.57h5.56zm0 11.13h-5.56v5.56h5.56zm0 11.12h-5.56v5.57h5.56zm0 11.13h-5.56v5.56h5.56zm11.12-44.5h-5.56v5.56h5.56zm0 11.12h-5.56v5.57h5.56zm0 11.13h-5.56v5.56h5.56zm0 11.12h-5.56v5.57h5.56zm0 11.13h-5.56v5.56h5.56zm-38.93 16.69h-5.57v5.56H526v-55.63h5.56v-11.12h5.57v11.12h5.56v-11.12h5.56v11.12h5.56V1895H542.7zm-5.57-38.94h-5.56v5.56h5.56zm0 11.12h-5.56v5.57h5.56zm0 11.13h-5.56v5.56h5.56zm11.13-22.25h-5.56v5.56h5.56zm0 11.12h-5.56v5.57h5.56zm0 11.13h-5.56v5.56h5.56z"/></defs><use fill="#fff" xlink:href="#a" transform="translate(-524 -1804)"/></svg>